<svg aria-roledescription="er" role="graphics-document document" viewBox="0 0 829.2135009765625 906" style="max-width: 829.214px; background-color: white;" xmlns:xlink="http://www.w3.org/1999/xlink" xmlns="http://www.w3.org/2000/svg" width="100%" id="my-svg"><style>#my-svg{font-family:"trebuchet ms",verdana,arial,sans-serif;font-size:16px;fill:#000000;}#my-svg .error-icon{fill:#552222;}#my-svg .error-text{fill:#552222;stroke:#552222;}#my-svg .edge-thickness-normal{stroke-width:2px;}#my-svg .edge-thickness-thick{stroke-width:3.5px;}#my-svg .edge-pattern-solid{stroke-dasharray:0;}#my-svg .edge-pattern-dashed{stroke-dasharray:3;}#my-svg .edge-pattern-dotted{stroke-dasharray:2;}#my-svg .marker{fill:#000000;stroke:#000000;}#my-svg .marker.cross{stroke:#000000;}#my-svg svg{font-family:"trebuchet ms",verdana,arial,sans-serif;font-size:16px;}#my-svg .entityBox{fill:#cde498;stroke:#13540c;}#my-svg .attributeBoxOdd{fill:#ffffff;stroke:#13540c;}#my-svg .attributeBoxEven{fill:#f2f2f2;stroke:#13540c;}#my-svg .relationshipLabelBox{fill:hsl(78.1578947368, 58.4615384615%, 84.5098039216%);opacity:0.7;background-color:hsl(78.1578947368, 58.4615384615%, 84.5098039216%);}#my-svg .relationshipLabelBox rect{opacity:0.5;}#my-svg .relationshipLine{stroke:#000000;}#my-svg .entityTitleText{text-anchor:middle;font-size:18px;fill:#000000;}#my-svg #MD_PARENT_START{fill:#f5f5f5!important;stroke:#000000!important;stroke-width:1;}#my-svg #MD_PARENT_END{fill:#f5f5f5!important;stroke:#000000!important;stroke-width:1;}#my-svg :root{--mermaid-font-family:"trebuchet ms",verdana,arial,sans-serif;}</style><g/><defs><marker orient="auto" markerHeight="240" markerWidth="190" refY="7" refX="0" id="MD_PARENT_START"><path d="M 18,7 L9,13 L1,7 L9,1 Z"/></marker></defs><defs><marker orient="auto" markerHeight="28" markerWidth="20" refY="7" refX="19" id="MD_PARENT_END"><path d="M 18,7 L9,13 L1,7 L9,1 Z"/></marker></defs><defs><marker orient="auto" markerHeight="18" markerWidth="18" refY="9" refX="0" id="ONLY_ONE_START"><path d="M9,0 L9,18 M15,0 L15,18" fill="none" stroke="gray"/></marker></defs><defs><marker orient="auto" markerHeight="18" markerWidth="18" refY="9" refX="18" id="ONLY_ONE_END"><path d="M3,0 L3,18 M9,0 L9,18" fill="none" stroke="gray"/></marker></defs><defs><marker orient="auto" markerHeight="18" markerWidth="30" refY="9" refX="0" id="ZERO_OR_ONE_START"><circle r="6" cy="9" cx="21" fill="white" stroke="gray"/><path d="M9,0 L9,18" fill="none" stroke="gray"/></marker></defs><defs><marker orient="auto" markerHeight="18" markerWidth="30" refY="9" refX="30" id="ZERO_OR_ONE_END"><circle r="6" cy="9" cx="9" fill="white" stroke="gray"/><path d="M21,0 L21,18" fill="none" stroke="gray"/></marker></defs><defs><marker orient="auto" markerHeight="36" markerWidth="45" refY="18" refX="18" id="ONE_OR_MORE_START"><path d="M0,18 Q 18,0 36,18 Q 18,36 0,18 M42,9 L42,27" fill="none" stroke="gray"/></marker></defs><defs><marker orient="auto" markerHeight="36" markerWidth="45" refY="18" refX="27" id="ONE_OR_MORE_END"><path d="M3,9 L3,27 M9,18 Q27,0 45,18 Q27,36 9,18" fill="none" stroke="gray"/></marker></defs><defs><marker orient="auto" markerHeight="36" markerWidth="57" refY="18" refX="18" id="ZERO_OR_MORE_START"><circle r="6" cy="18" cx="48" fill="white" stroke="gray"/><path d="M0,18 Q18,0 36,18 Q18,36 0,18" fill="none" stroke="gray"/></marker></defs><defs><marker orient="auto" markerHeight="36" markerWidth="57" refY="18" refX="39" id="ZERO_OR_MORE_END"><circle r="6" cy="18" cx="9" fill="white" stroke="gray"/><path d="M21,18 Q39,0 57,18 Q39,36 21,18" fill="none" stroke="gray"/></marker></defs><path style="stroke: gray; fill: none;" marker-start="url(#ZERO_OR_ONE_START)" marker-end="url(#ZERO_OR_ONE_END)" d="M474.4358825683594,374L474.4358825683594,382.3333333333333C474.4358825683594,390.6666666666667,474.4358825683594,407.3333333333333,474.4358825683594,436.8333333333333C474.4358825683594,466.3333333333333,474.4358825683594,508.6666666666667,474.4358825683594,529.8333333333334L474.4358825683594,551" class="er relationshipLine"/><path style="stroke: gray; fill: none;" marker-start="url(#ZERO_OR_MORE_START)" marker-end="url(#ZERO_OR_MORE_END)" d="M556.9329528808594,306.3892934437249L571.7158419291178,325.9910778697708C586.4987309773763,345.5928622958166,616.0645090738932,384.7964311479083,634.5324087123199,412.7315489072875C653.0003083507466,440.6666666666667,660.3703295310833,457.3333333333333,664.0553401212514,465.6666666666667L667.7403507114198,474" class="er relationshipLine"/><path style="stroke: gray; fill: none;" marker-start="url(#ZERO_OR_ONE_START)" marker-end="url(#ONLY_ONE_END)" d="M391.9388122558594,290.6341748046875L372.35499064127606,312.8618123372396C352.7711690266927,335.0894498697917,313.60352579752606,379.54472493489584,294.0197041829427,422.9390291341146C274.4358825683594,466.3333333333333,274.4358825683594,508.6666666666667,274.4358825683594,529.8333333333334L274.4358825683594,551" class="er relationshipLine"/><path style="stroke: gray; fill: none;" marker-start="url(#ZERO_OR_ONE_START)" marker-end="url(#ONLY_ONE_END)" d="M391.9388122558594,243.55892499759577L338.6520004272461,273.6324374979965C285.3651885986328,303.7059499983972,178.79156494140625,363.8529749991986,125.50475311279297,415.09315416626595C72.21794128417969,466.3333333333333,72.21794128417969,508.6666666666667,72.21794128417969,529.8333333333334L72.21794128417969,551" class="er relationshipLine"/><path style="stroke: gray; fill: none;" marker-start="url(#ZERO_OR_ONE_START)" marker-end="url(#ONLY_ONE_END)" d="M751.2967414619019,474L753.8847331803285,465.6666666666667C756.472724898755,457.3333333333333,761.6487083356079,440.6666666666667,729.2547435721008,405.1746190753749C696.8607788085938,369.6825714840831,626.8968658447266,315.3651429681662,591.914909362793,288.2064287102077L556.9329528808594,261.0477144522493" class="er relationshipLine"/><path style="stroke: gray; fill: none;" marker-start="url(#ZERO_OR_ONE_START)" marker-end="url(#ONLY_ONE_END)" d="M716.8246917724609,696L716.8246917724609,704.3333333333334C716.8246917724609,712.6666666666666,716.8246917724609,729.3333333333334,716.8246917724609,746C716.8246917724609,762.6666666666666,716.8246917724609,779.3333333333334,716.8246917724609,787.6666666666666L716.8246917724609,796" class="er relationshipLine"/><g transform="translate(20,551 )" id="entity-status-3a93d909-c50f-5400-94e9-d6a6a7141509"><rect height="68" width="104.43588256835938" y="0" x="0" class="er entityBox"/><text style="dominant-baseline: middle; text-anchor: middle; font-size: 12px;" transform="translate(52.21794128417969,12)" y="0" x="0" id="text-entity-status-3a93d909-c50f-5400-94e9-d6a6a7141509" class="er entityLabel">status</text><rect height="22" width="52.21794128417969" y="24" x="0" class="er attributeBoxOdd"/><text style="dominant-baseline: middle; font-size: 10.2px;" transform="translate(5,35)" y="0" x="0" id="text-entity-status-3a93d909-c50f-5400-94e9-d6a6a7141509-attr-1-type" class="er entityLabel">ACTIVE</text><rect height="22" width="52.21794128417969" y="24" x="52.21794128417969" class="er attributeBoxOdd"/><text style="dominant-baseline: middle; font-size: 10.2px;" transform="translate(57.21794128417969,35)" y="0" x="0" id="text-entity-status-3a93d909-c50f-5400-94e9-d6a6a7141509-attr-1-name" class="er entityLabel">ACTIVE</text><rect height="22" width="52.21794128417969" y="46" x="0" class="er attributeBoxEven"/><text style="dominant-baseline: middle; font-size: 10.2px;" transform="translate(5,57)" y="0" x="0" id="text-entity-status-3a93d909-c50f-5400-94e9-d6a6a7141509-attr-2-type" class="er entityLabel">INACTIVE</text><rect height="22" width="52.21794128417969" y="46" x="52.21794128417969" class="er attributeBoxEven"/><text style="dominant-baseline: middle; font-size: 10.2px;" transform="translate(57.21794128417969,57)" y="0" x="0" id="text-entity-status-3a93d909-c50f-5400-94e9-d6a6a7141509-attr-2-name" class="er entityLabel">INACTIVE</text></g><g transform="translate(646.6571807861328,796 )" id="entity-PropertyStatus-fa5ad68d-a506-53b5-92ae-3a0fb95dcc22"><rect height="90" width="140.33502197265625" y="0" x="0" class="er entityBox"/><text style="dominant-baseline: middle; text-anchor: middle; font-size: 12px;" transform="translate(70.16751098632812,12)" y="0" x="0" id="text-entity-PropertyStatus-fa5ad68d-a506-53b5-92ae-3a0fb95dcc22" class="er entityLabel">PropertyStatus</text><rect height="22" width="70.16751098632812" y="24" x="0" class="er attributeBoxOdd"/><text style="dominant-baseline: middle; font-size: 10.2px;" transform="translate(5,35)" y="0" x="0" id="text-entity-PropertyStatus-fa5ad68d-a506-53b5-92ae-3a0fb95dcc22-attr-1-type" class="er entityLabel">AVAILABLE</text><rect height="22" width="70.16751098632812" y="24" x="70.16751098632812" class="er attributeBoxOdd"/><text style="dominant-baseline: middle; font-size: 10.2px;" transform="translate(75.16751098632812,35)" y="0" x="0" id="text-entity-PropertyStatus-fa5ad68d-a506-53b5-92ae-3a0fb95dcc22-attr-1-name" class="er entityLabel">AVAILABLE</text><rect height="22" width="70.16751098632812" y="46" x="0" class="er attributeBoxEven"/><text style="dominant-baseline: middle; font-size: 10.2px;" transform="translate(5,57)" y="0" x="0" id="text-entity-PropertyStatus-fa5ad68d-a506-53b5-92ae-3a0fb95dcc22-attr-2-type" class="er entityLabel">BOOKED</text><rect height="22" width="70.16751098632812" y="46" x="70.16751098632812" class="er attributeBoxEven"/><text style="dominant-baseline: middle; font-size: 10.2px;" transform="translate(75.16751098632812,57)" y="0" x="0" id="text-entity-PropertyStatus-fa5ad68d-a506-53b5-92ae-3a0fb95dcc22-attr-2-name" class="er entityLabel">BOOKED</text><rect height="22" width="70.16751098632812" y="68" x="0" class="er attributeBoxOdd"/><text style="dominant-baseline: middle; font-size: 10.2px;" transform="translate(5,79)" y="0" x="0" id="text-entity-PropertyStatus-fa5ad68d-a506-53b5-92ae-3a0fb95dcc22-attr-3-type" class="er entityLabel">UNAVAILABLE</text><rect height="22" width="70.16751098632812" y="68" x="70.16751098632812" class="er attributeBoxOdd"/><text style="dominant-baseline: middle; font-size: 10.2px;" transform="translate(75.16751098632812,79)" y="0" x="0" id="text-entity-PropertyStatus-fa5ad68d-a506-53b5-92ae-3a0fb95dcc22-attr-3-name" class="er entityLabel">UNAVAILABLE</text></g><g transform="translate(224.43588256835938,551 )" id="entity-ProfileType-e17c5223-d488-5238-8fff-80068ed25e87"><rect height="68" width="100" y="0" x="0" class="er entityBox"/><text style="dominant-baseline: middle; text-anchor: middle; font-size: 12px;" transform="translate(50,12)" y="0" x="0" id="text-entity-ProfileType-e17c5223-d488-5238-8fff-80068ed25e87" class="er entityLabel">ProfileType</text><rect height="22" width="50" y="24" x="0" class="er attributeBoxOdd"/><text style="dominant-baseline: middle; font-size: 10.2px;" transform="translate(5,35)" y="0" x="0" id="text-entity-ProfileType-e17c5223-d488-5238-8fff-80068ed25e87-attr-1-type" class="er entityLabel">ADMIN</text><rect height="22" width="50" y="24" x="50" class="er attributeBoxOdd"/><text style="dominant-baseline: middle; font-size: 10.2px;" transform="translate(55,35)" y="0" x="0" id="text-entity-ProfileType-e17c5223-d488-5238-8fff-80068ed25e87-attr-1-name" class="er entityLabel">ADMIN</text><rect height="22" width="50" y="46" x="0" class="er attributeBoxEven"/><text style="dominant-baseline: middle; font-size: 10.2px;" transform="translate(5,57)" y="0" x="0" id="text-entity-ProfileType-e17c5223-d488-5238-8fff-80068ed25e87-attr-2-type" class="er entityLabel">CLIENT</text><rect height="22" width="50" y="46" x="50" class="er attributeBoxEven"/><text style="dominant-baseline: middle; font-size: 10.2px;" transform="translate(55,57)" y="0" x="0" id="text-entity-ProfileType-e17c5223-d488-5238-8fff-80068ed25e87-attr-2-name" class="er entityLabel">CLIENT</text></g><g transform="translate(424.4358825683594,551 )" id="entity-Gender-2af7dcd7-ae74-587e-9aa6-b032bcfcd51b"><rect height="68" width="100" y="0" x="0" class="er entityBox"/><text style="dominant-baseline: middle; text-anchor: middle; font-size: 12px;" transform="translate(50,12)" y="0" x="0" id="text-entity-Gender-2af7dcd7-ae74-587e-9aa6-b032bcfcd51b" class="er entityLabel">Gender</text><rect height="22" width="50" y="24" x="0" class="er attributeBoxOdd"/><text style="dominant-baseline: middle; font-size: 10.2px;" transform="translate(5,35)" y="0" x="0" id="text-entity-Gender-2af7dcd7-ae74-587e-9aa6-b032bcfcd51b-attr-1-type" class="er entityLabel">MALE</text><rect height="22" width="50" y="24" x="50" class="er attributeBoxOdd"/><text style="dominant-baseline: middle; font-size: 10.2px;" transform="translate(55,35)" y="0" x="0" id="text-entity-Gender-2af7dcd7-ae74-587e-9aa6-b032bcfcd51b-attr-1-name" class="er entityLabel">MALE</text><rect height="22" width="50" y="46" x="0" class="er attributeBoxEven"/><text style="dominant-baseline: middle; font-size: 10.2px;" transform="translate(5,57)" y="0" x="0" id="text-entity-Gender-2af7dcd7-ae74-587e-9aa6-b032bcfcd51b-attr-2-type" class="er entityLabel">FEMALE</text><rect height="22" width="50" y="46" x="50" class="er attributeBoxEven"/><text style="dominant-baseline: middle; font-size: 10.2px;" transform="translate(55,57)" y="0" x="0" id="text-entity-Gender-2af7dcd7-ae74-587e-9aa6-b032bcfcd51b-attr-2-name" class="er entityLabel">FEMALE</text></g><g transform="translate(391.9388122558594,20 )" id="entity-user-dad033c9-7a45-5f6a-ab5a-b5def405b2a6"><rect height="354" width="164.994140625" y="0" x="0" class="er entityBox"/><text style="dominant-baseline: middle; text-anchor: middle; font-size: 12px;" transform="translate(82.4970703125,12)" y="0" x="0" id="text-entity-user-dad033c9-7a45-5f6a-ab5a-b5def405b2a6" class="er entityLabel">user</text><rect height="22" width="61.3570556640625" y="24" x="0" class="er attributeBoxOdd"/><text style="dominant-baseline: middle; font-size: 10.2px;" transform="translate(5,35)" y="0" x="0" id="text-entity-user-dad033c9-7a45-5f6a-ab5a-b5def405b2a6-attr-1-type" class="er entityLabel">String</text><rect height="22" width="79.6214599609375" y="24" x="61.3570556640625" class="er attributeBoxOdd"/><text style="dominant-baseline: middle; font-size: 10.2px;" transform="translate(66.3570556640625,35)" y="0" x="0" id="text-entity-user-dad033c9-7a45-5f6a-ab5a-b5def405b2a6-attr-1-name" class="er entityLabel">id</text><rect height="22" width="24.015625" y="24" x="140.978515625" class="er attributeBoxOdd"/><text style="dominant-baseline: middle; font-size: 10.2px;" transform="translate(145.978515625,35)" y="0" x="0" id="text-entity-user-dad033c9-7a45-5f6a-ab5a-b5def405b2a6-attr-1-comment" class="er entityLabel">🗝️</text><rect height="22" width="61.3570556640625" y="46" x="0" class="er attributeBoxEven"/><text style="dominant-baseline: middle; font-size: 10.2px;" transform="translate(5,57)" y="0" x="0" id="text-entity-user-dad033c9-7a45-5f6a-ab5a-b5def405b2a6-attr-2-type" class="er entityLabel">String</text><rect height="22" width="79.6214599609375" y="46" x="61.3570556640625" class="er attributeBoxEven"/><text style="dominant-baseline: middle; font-size: 10.2px;" transform="translate(66.3570556640625,57)" y="0" x="0" id="text-entity-user-dad033c9-7a45-5f6a-ab5a-b5def405b2a6-attr-2-name" class="er entityLabel">email</text><rect height="22" width="24.015625" y="46" x="140.978515625" class="er attributeBoxEven"/><text style="dominant-baseline: middle; font-size: 10.2px;" transform="translate(145.978515625,57)" y="0" x="0" id="text-entity-user-dad033c9-7a45-5f6a-ab5a-b5def405b2a6-attr-2-comment" class="er entityLabel"/><rect height="22" width="61.3570556640625" y="68" x="0" class="er attributeBoxOdd"/><text style="dominant-baseline: middle; font-size: 10.2px;" transform="translate(5,79)" y="0" x="0" id="text-entity-user-dad033c9-7a45-5f6a-ab5a-b5def405b2a6-attr-3-type" class="er entityLabel">String</text><rect height="22" width="79.6214599609375" y="68" x="61.3570556640625" class="er attributeBoxOdd"/><text style="dominant-baseline: middle; font-size: 10.2px;" transform="translate(66.3570556640625,79)" y="0" x="0" id="text-entity-user-dad033c9-7a45-5f6a-ab5a-b5def405b2a6-attr-3-name" class="er entityLabel">username</text><rect height="22" width="24.015625" y="68" x="140.978515625" class="er attributeBoxOdd"/><text style="dominant-baseline: middle; font-size: 10.2px;" transform="translate(145.978515625,79)" y="0" x="0" id="text-entity-user-dad033c9-7a45-5f6a-ab5a-b5def405b2a6-attr-3-comment" class="er entityLabel"/><rect height="22" width="61.3570556640625" y="90" x="0" class="er attributeBoxEven"/><text style="dominant-baseline: middle; font-size: 10.2px;" transform="translate(5,101)" y="0" x="0" id="text-entity-user-dad033c9-7a45-5f6a-ab5a-b5def405b2a6-attr-4-type" class="er entityLabel">String</text><rect height="22" width="79.6214599609375" y="90" x="61.3570556640625" class="er attributeBoxEven"/><text style="dominant-baseline: middle; font-size: 10.2px;" transform="translate(66.3570556640625,101)" y="0" x="0" id="text-entity-user-dad033c9-7a45-5f6a-ab5a-b5def405b2a6-attr-4-name" class="er entityLabel">name</text><rect height="22" width="24.015625" y="90" x="140.978515625" class="er attributeBoxEven"/><text style="dominant-baseline: middle; font-size: 10.2px;" transform="translate(145.978515625,101)" y="0" x="0" id="text-entity-user-dad033c9-7a45-5f6a-ab5a-b5def405b2a6-attr-4-comment" class="er entityLabel">❓</text><rect height="22" width="61.3570556640625" y="112" x="0" class="er attributeBoxOdd"/><text style="dominant-baseline: middle; font-size: 10.2px;" transform="translate(5,123)" y="0" x="0" id="text-entity-user-dad033c9-7a45-5f6a-ab5a-b5def405b2a6-attr-5-type" class="er entityLabel">String</text><rect height="22" width="79.6214599609375" y="112" x="61.3570556640625" class="er attributeBoxOdd"/><text style="dominant-baseline: middle; font-size: 10.2px;" transform="translate(66.3570556640625,123)" y="0" x="0" id="text-entity-user-dad033c9-7a45-5f6a-ab5a-b5def405b2a6-attr-5-name" class="er entityLabel">title</text><rect height="22" width="24.015625" y="112" x="140.978515625" class="er attributeBoxOdd"/><text style="dominant-baseline: middle; font-size: 10.2px;" transform="translate(145.978515625,123)" y="0" x="0" id="text-entity-user-dad033c9-7a45-5f6a-ab5a-b5def405b2a6-attr-5-comment" class="er entityLabel">❓</text><rect height="22" width="61.3570556640625" y="134" x="0" class="er attributeBoxEven"/><text style="dominant-baseline: middle; font-size: 10.2px;" transform="translate(5,145)" y="0" x="0" id="text-entity-user-dad033c9-7a45-5f6a-ab5a-b5def405b2a6-attr-6-type" class="er entityLabel">String</text><rect height="22" width="79.6214599609375" y="134" x="61.3570556640625" class="er attributeBoxEven"/><text style="dominant-baseline: middle; font-size: 10.2px;" transform="translate(66.3570556640625,145)" y="0" x="0" id="text-entity-user-dad033c9-7a45-5f6a-ab5a-b5def405b2a6-attr-6-name" class="er entityLabel">surname</text><rect height="22" width="24.015625" y="134" x="140.978515625" class="er attributeBoxEven"/><text style="dominant-baseline: middle; font-size: 10.2px;" transform="translate(145.978515625,145)" y="0" x="0" id="text-entity-user-dad033c9-7a45-5f6a-ab5a-b5def405b2a6-attr-6-comment" class="er entityLabel">❓</text><rect height="22" width="61.3570556640625" y="156" x="0" class="er attributeBoxOdd"/><text style="dominant-baseline: middle; font-size: 10.2px;" transform="translate(5,167)" y="0" x="0" id="text-entity-user-dad033c9-7a45-5f6a-ab5a-b5def405b2a6-attr-7-type" class="er entityLabel">String</text><rect height="22" width="79.6214599609375" y="156" x="61.3570556640625" class="er attributeBoxOdd"/><text style="dominant-baseline: middle; font-size: 10.2px;" transform="translate(66.3570556640625,167)" y="0" x="0" id="text-entity-user-dad033c9-7a45-5f6a-ab5a-b5def405b2a6-attr-7-name" class="er entityLabel">phone</text><rect height="22" width="24.015625" y="156" x="140.978515625" class="er attributeBoxOdd"/><text style="dominant-baseline: middle; font-size: 10.2px;" transform="translate(145.978515625,167)" y="0" x="0" id="text-entity-user-dad033c9-7a45-5f6a-ab5a-b5def405b2a6-attr-7-comment" class="er entityLabel">❓</text><rect height="22" width="61.3570556640625" y="178" x="0" class="er attributeBoxEven"/><text style="dominant-baseline: middle; font-size: 10.2px;" transform="translate(5,189)" y="0" x="0" id="text-entity-user-dad033c9-7a45-5f6a-ab5a-b5def405b2a6-attr-8-type" class="er entityLabel">Int</text><rect height="22" width="79.6214599609375" y="178" x="61.3570556640625" class="er attributeBoxEven"/><text style="dominant-baseline: middle; font-size: 10.2px;" transform="translate(66.3570556640625,189)" y="0" x="0" id="text-entity-user-dad033c9-7a45-5f6a-ab5a-b5def405b2a6-attr-8-name" class="er entityLabel">age</text><rect height="22" width="24.015625" y="178" x="140.978515625" class="er attributeBoxEven"/><text style="dominant-baseline: middle; font-size: 10.2px;" transform="translate(145.978515625,189)" y="0" x="0" id="text-entity-user-dad033c9-7a45-5f6a-ab5a-b5def405b2a6-attr-8-comment" class="er entityLabel">❓</text><rect height="22" width="61.3570556640625" y="200" x="0" class="er attributeBoxOdd"/><text style="dominant-baseline: middle; font-size: 10.2px;" transform="translate(5,211)" y="0" x="0" id="text-entity-user-dad033c9-7a45-5f6a-ab5a-b5def405b2a6-attr-9-type" class="er entityLabel">Gender</text><rect height="22" width="79.6214599609375" y="200" x="61.3570556640625" class="er attributeBoxOdd"/><text style="dominant-baseline: middle; font-size: 10.2px;" transform="translate(66.3570556640625,211)" y="0" x="0" id="text-entity-user-dad033c9-7a45-5f6a-ab5a-b5def405b2a6-attr-9-name" class="er entityLabel">gender</text><rect height="22" width="24.015625" y="200" x="140.978515625" class="er attributeBoxOdd"/><text style="dominant-baseline: middle; font-size: 10.2px;" transform="translate(145.978515625,211)" y="0" x="0" id="text-entity-user-dad033c9-7a45-5f6a-ab5a-b5def405b2a6-attr-9-comment" class="er entityLabel">❓</text><rect height="22" width="61.3570556640625" y="222" x="0" class="er attributeBoxEven"/><text style="dominant-baseline: middle; font-size: 10.2px;" transform="translate(5,233)" y="0" x="0" id="text-entity-user-dad033c9-7a45-5f6a-ab5a-b5def405b2a6-attr-10-type" class="er entityLabel">String</text><rect height="22" width="79.6214599609375" y="222" x="61.3570556640625" class="er attributeBoxEven"/><text style="dominant-baseline: middle; font-size: 10.2px;" transform="translate(66.3570556640625,233)" y="0" x="0" id="text-entity-user-dad033c9-7a45-5f6a-ab5a-b5def405b2a6-attr-10-name" class="er entityLabel">password</text><rect height="22" width="24.015625" y="222" x="140.978515625" class="er attributeBoxEven"/><text style="dominant-baseline: middle; font-size: 10.2px;" transform="translate(145.978515625,233)" y="0" x="0" id="text-entity-user-dad033c9-7a45-5f6a-ab5a-b5def405b2a6-attr-10-comment" class="er entityLabel"/><rect height="22" width="61.3570556640625" y="244" x="0" class="er attributeBoxOdd"/><text style="dominant-baseline: middle; font-size: 10.2px;" transform="translate(5,255)" y="0" x="0" id="text-entity-user-dad033c9-7a45-5f6a-ab5a-b5def405b2a6-attr-11-type" class="er entityLabel">String</text><rect height="22" width="79.6214599609375" y="244" x="61.3570556640625" class="er attributeBoxOdd"/><text style="dominant-baseline: middle; font-size: 10.2px;" transform="translate(66.3570556640625,255)" y="0" x="0" id="text-entity-user-dad033c9-7a45-5f6a-ab5a-b5def405b2a6-attr-11-name" class="er entityLabel">salt</text><rect height="22" width="24.015625" y="244" x="140.978515625" class="er attributeBoxOdd"/><text style="dominant-baseline: middle; font-size: 10.2px;" transform="translate(145.978515625,255)" y="0" x="0" id="text-entity-user-dad033c9-7a45-5f6a-ab5a-b5def405b2a6-attr-11-comment" class="er entityLabel"/><rect height="22" width="61.3570556640625" y="266" x="0" class="er attributeBoxEven"/><text style="dominant-baseline: middle; font-size: 10.2px;" transform="translate(5,277)" y="0" x="0" id="text-entity-user-dad033c9-7a45-5f6a-ab5a-b5def405b2a6-attr-12-type" class="er entityLabel">ProfileType</text><rect height="22" width="79.6214599609375" y="266" x="61.3570556640625" class="er attributeBoxEven"/><text style="dominant-baseline: middle; font-size: 10.2px;" transform="translate(66.3570556640625,277)" y="0" x="0" id="text-entity-user-dad033c9-7a45-5f6a-ab5a-b5def405b2a6-attr-12-name" class="er entityLabel">profile_type</text><rect height="22" width="24.015625" y="266" x="140.978515625" class="er attributeBoxEven"/><text style="dominant-baseline: middle; font-size: 10.2px;" transform="translate(145.978515625,277)" y="0" x="0" id="text-entity-user-dad033c9-7a45-5f6a-ab5a-b5def405b2a6-attr-12-comment" class="er entityLabel"/><rect height="22" width="61.3570556640625" y="288" x="0" class="er attributeBoxOdd"/><text style="dominant-baseline: middle; font-size: 10.2px;" transform="translate(5,299)" y="0" x="0" id="text-entity-user-dad033c9-7a45-5f6a-ab5a-b5def405b2a6-attr-13-type" class="er entityLabel">status</text><rect height="22" width="79.6214599609375" y="288" x="61.3570556640625" class="er attributeBoxOdd"/><text style="dominant-baseline: middle; font-size: 10.2px;" transform="translate(66.3570556640625,299)" y="0" x="0" id="text-entity-user-dad033c9-7a45-5f6a-ab5a-b5def405b2a6-attr-13-name" class="er entityLabel">account_status</text><rect height="22" width="24.015625" y="288" x="140.978515625" class="er attributeBoxOdd"/><text style="dominant-baseline: middle; font-size: 10.2px;" transform="translate(145.978515625,299)" y="0" x="0" id="text-entity-user-dad033c9-7a45-5f6a-ab5a-b5def405b2a6-attr-13-comment" class="er entityLabel"/><rect height="22" width="61.3570556640625" y="310" x="0" class="er attributeBoxEven"/><text style="dominant-baseline: middle; font-size: 10.2px;" transform="translate(5,321)" y="0" x="0" id="text-entity-user-dad033c9-7a45-5f6a-ab5a-b5def405b2a6-attr-14-type" class="er entityLabel">DateTime</text><rect height="22" width="79.6214599609375" y="310" x="61.3570556640625" class="er attributeBoxEven"/><text style="dominant-baseline: middle; font-size: 10.2px;" transform="translate(66.3570556640625,321)" y="0" x="0" id="text-entity-user-dad033c9-7a45-5f6a-ab5a-b5def405b2a6-attr-14-name" class="er entityLabel">created_at</text><rect height="22" width="24.015625" y="310" x="140.978515625" class="er attributeBoxEven"/><text style="dominant-baseline: middle; font-size: 10.2px;" transform="translate(145.978515625,321)" y="0" x="0" id="text-entity-user-dad033c9-7a45-5f6a-ab5a-b5def405b2a6-attr-14-comment" class="er entityLabel"/><rect height="22" width="61.3570556640625" y="332" x="0" class="er attributeBoxOdd"/><text style="dominant-baseline: middle; font-size: 10.2px;" transform="translate(5,343)" y="0" x="0" id="text-entity-user-dad033c9-7a45-5f6a-ab5a-b5def405b2a6-attr-15-type" class="er entityLabel">DateTime</text><rect height="22" width="79.6214599609375" y="332" x="61.3570556640625" class="er attributeBoxOdd"/><text style="dominant-baseline: middle; font-size: 10.2px;" transform="translate(66.3570556640625,343)" y="0" x="0" id="text-entity-user-dad033c9-7a45-5f6a-ab5a-b5def405b2a6-attr-15-name" class="er entityLabel">updated_at</text><rect height="22" width="24.015625" y="332" x="140.978515625" class="er attributeBoxOdd"/><text style="dominant-baseline: middle; font-size: 10.2px;" transform="translate(145.978515625,343)" y="0" x="0" id="text-entity-user-dad033c9-7a45-5f6a-ab5a-b5def405b2a6-attr-15-comment" class="er entityLabel"/></g><g transform="translate(624.4358825683594,474 )" id="entity-Property-bffc1bdb-1548-5319-88e4-c0d0344b3229"><rect height="222" width="184.77761840820312" y="0" x="0" class="er entityBox"/><text style="dominant-baseline: middle; text-anchor: middle; font-size: 12px;" transform="translate(92.38880920410156,12)" y="0" x="0" id="text-entity-Property-bffc1bdb-1548-5319-88e4-c0d0344b3229" class="er entityLabel">Property</text><rect height="22" width="77.8583984375" y="24" x="0" class="er attributeBoxOdd"/><text style="dominant-baseline: middle; font-size: 10.2px;" transform="translate(5,35)" y="0" x="0" id="text-entity-Property-bffc1bdb-1548-5319-88e4-c0d0344b3229-attr-1-type" class="er entityLabel">String</text><rect height="22" width="82.90359497070312" y="24" x="77.8583984375" class="er attributeBoxOdd"/><text style="dominant-baseline: middle; font-size: 10.2px;" transform="translate(82.8583984375,35)" y="0" x="0" id="text-entity-Property-bffc1bdb-1548-5319-88e4-c0d0344b3229-attr-1-name" class="er entityLabel">id</text><rect height="22" width="24.015625" y="24" x="160.76199340820312" class="er attributeBoxOdd"/><text style="dominant-baseline: middle; font-size: 10.2px;" transform="translate(165.76199340820312,35)" y="0" x="0" id="text-entity-Property-bffc1bdb-1548-5319-88e4-c0d0344b3229-attr-1-comment" class="er entityLabel">🗝️</text><rect height="22" width="77.8583984375" y="46" x="0" class="er attributeBoxEven"/><text style="dominant-baseline: middle; font-size: 10.2px;" transform="translate(5,57)" y="0" x="0" id="text-entity-Property-bffc1bdb-1548-5319-88e4-c0d0344b3229-attr-2-type" class="er entityLabel">String</text><rect height="22" width="82.90359497070312" y="46" x="77.8583984375" class="er attributeBoxEven"/><text style="dominant-baseline: middle; font-size: 10.2px;" transform="translate(82.8583984375,57)" y="0" x="0" id="text-entity-Property-bffc1bdb-1548-5319-88e4-c0d0344b3229-attr-2-name" class="er entityLabel">name</text><rect height="22" width="24.015625" y="46" x="160.76199340820312" class="er attributeBoxEven"/><text style="dominant-baseline: middle; font-size: 10.2px;" transform="translate(165.76199340820312,57)" y="0" x="0" id="text-entity-Property-bffc1bdb-1548-5319-88e4-c0d0344b3229-attr-2-comment" class="er entityLabel"/><rect height="22" width="77.8583984375" y="68" x="0" class="er attributeBoxOdd"/><text style="dominant-baseline: middle; font-size: 10.2px;" transform="translate(5,79)" y="0" x="0" id="text-entity-Property-bffc1bdb-1548-5319-88e4-c0d0344b3229-attr-3-type" class="er entityLabel">String</text><rect height="22" width="82.90359497070312" y="68" x="77.8583984375" class="er attributeBoxOdd"/><text style="dominant-baseline: middle; font-size: 10.2px;" transform="translate(82.8583984375,79)" y="0" x="0" id="text-entity-Property-bffc1bdb-1548-5319-88e4-c0d0344b3229-attr-3-name" class="er entityLabel">description</text><rect height="22" width="24.015625" y="68" x="160.76199340820312" class="er attributeBoxOdd"/><text style="dominant-baseline: middle; font-size: 10.2px;" transform="translate(165.76199340820312,79)" y="0" x="0" id="text-entity-Property-bffc1bdb-1548-5319-88e4-c0d0344b3229-attr-3-comment" class="er entityLabel">❓</text><rect height="22" width="77.8583984375" y="90" x="0" class="er attributeBoxEven"/><text style="dominant-baseline: middle; font-size: 10.2px;" transform="translate(5,101)" y="0" x="0" id="text-entity-Property-bffc1bdb-1548-5319-88e4-c0d0344b3229-attr-4-type" class="er entityLabel">Int</text><rect height="22" width="82.90359497070312" y="90" x="77.8583984375" class="er attributeBoxEven"/><text style="dominant-baseline: middle; font-size: 10.2px;" transform="translate(82.8583984375,101)" y="0" x="0" id="text-entity-Property-bffc1bdb-1548-5319-88e4-c0d0344b3229-attr-4-name" class="er entityLabel">rooms</text><rect height="22" width="24.015625" y="90" x="160.76199340820312" class="er attributeBoxEven"/><text style="dominant-baseline: middle; font-size: 10.2px;" transform="translate(165.76199340820312,101)" y="0" x="0" id="text-entity-Property-bffc1bdb-1548-5319-88e4-c0d0344b3229-attr-4-comment" class="er entityLabel">❓</text><rect height="22" width="77.8583984375" y="112" x="0" class="er attributeBoxOdd"/><text style="dominant-baseline: middle; font-size: 10.2px;" transform="translate(5,123)" y="0" x="0" id="text-entity-Property-bffc1bdb-1548-5319-88e4-c0d0344b3229-attr-5-type" class="er entityLabel">String</text><rect height="22" width="82.90359497070312" y="112" x="77.8583984375" class="er attributeBoxOdd"/><text style="dominant-baseline: middle; font-size: 10.2px;" transform="translate(82.8583984375,123)" y="0" x="0" id="text-entity-Property-bffc1bdb-1548-5319-88e4-c0d0344b3229-attr-5-name" class="er entityLabel">image_url</text><rect height="22" width="24.015625" y="112" x="160.76199340820312" class="er attributeBoxOdd"/><text style="dominant-baseline: middle; font-size: 10.2px;" transform="translate(165.76199340820312,123)" y="0" x="0" id="text-entity-Property-bffc1bdb-1548-5319-88e4-c0d0344b3229-attr-5-comment" class="er entityLabel">❓</text><rect height="22" width="77.8583984375" y="134" x="0" class="er attributeBoxEven"/><text style="dominant-baseline: middle; font-size: 10.2px;" transform="translate(5,145)" y="0" x="0" id="text-entity-Property-bffc1bdb-1548-5319-88e4-c0d0344b3229-attr-6-type" class="er entityLabel">String</text><rect height="22" width="82.90359497070312" y="134" x="77.8583984375" class="er attributeBoxEven"/><text style="dominant-baseline: middle; font-size: 10.2px;" transform="translate(82.8583984375,145)" y="0" x="0" id="text-entity-Property-bffc1bdb-1548-5319-88e4-c0d0344b3229-attr-6-name" class="er entityLabel">price</text><rect height="22" width="24.015625" y="134" x="160.76199340820312" class="er attributeBoxEven"/><text style="dominant-baseline: middle; font-size: 10.2px;" transform="translate(165.76199340820312,145)" y="0" x="0" id="text-entity-Property-bffc1bdb-1548-5319-88e4-c0d0344b3229-attr-6-comment" class="er entityLabel">❓</text><rect height="22" width="77.8583984375" y="156" x="0" class="er attributeBoxOdd"/><text style="dominant-baseline: middle; font-size: 10.2px;" transform="translate(5,167)" y="0" x="0" id="text-entity-Property-bffc1bdb-1548-5319-88e4-c0d0344b3229-attr-7-type" class="er entityLabel">PropertyStatus</text><rect height="22" width="82.90359497070312" y="156" x="77.8583984375" class="er attributeBoxOdd"/><text style="dominant-baseline: middle; font-size: 10.2px;" transform="translate(82.8583984375,167)" y="0" x="0" id="text-entity-Property-bffc1bdb-1548-5319-88e4-c0d0344b3229-attr-7-name" class="er entityLabel">property_status</text><rect height="22" width="24.015625" y="156" x="160.76199340820312" class="er attributeBoxOdd"/><text style="dominant-baseline: middle; font-size: 10.2px;" transform="translate(165.76199340820312,167)" y="0" x="0" id="text-entity-Property-bffc1bdb-1548-5319-88e4-c0d0344b3229-attr-7-comment" class="er entityLabel"/><rect height="22" width="77.8583984375" y="178" x="0" class="er attributeBoxEven"/><text style="dominant-baseline: middle; font-size: 10.2px;" transform="translate(5,189)" y="0" x="0" id="text-entity-Property-bffc1bdb-1548-5319-88e4-c0d0344b3229-attr-8-type" class="er entityLabel">DateTime</text><rect height="22" width="82.90359497070312" y="178" x="77.8583984375" class="er attributeBoxEven"/><text style="dominant-baseline: middle; font-size: 10.2px;" transform="translate(82.8583984375,189)" y="0" x="0" id="text-entity-Property-bffc1bdb-1548-5319-88e4-c0d0344b3229-attr-8-name" class="er entityLabel">created_at</text><rect height="22" width="24.015625" y="178" x="160.76199340820312" class="er attributeBoxEven"/><text style="dominant-baseline: middle; font-size: 10.2px;" transform="translate(165.76199340820312,189)" y="0" x="0" id="text-entity-Property-bffc1bdb-1548-5319-88e4-c0d0344b3229-attr-8-comment" class="er entityLabel"/><rect height="22" width="77.8583984375" y="200" x="0" class="er attributeBoxOdd"/><text style="dominant-baseline: middle; font-size: 10.2px;" transform="translate(5,211)" y="0" x="0" id="text-entity-Property-bffc1bdb-1548-5319-88e4-c0d0344b3229-attr-9-type" class="er entityLabel">DateTime</text><rect height="22" width="82.90359497070312" y="200" x="77.8583984375" class="er attributeBoxOdd"/><text style="dominant-baseline: middle; font-size: 10.2px;" transform="translate(82.8583984375,211)" y="0" x="0" id="text-entity-Property-bffc1bdb-1548-5319-88e4-c0d0344b3229-attr-9-name" class="er entityLabel">updated_at</text><rect height="22" width="24.015625" y="200" x="160.76199340820312" class="er attributeBoxOdd"/><text style="dominant-baseline: middle; font-size: 10.2px;" transform="translate(165.76199340820312,211)" y="0" x="0" id="text-entity-Property-bffc1bdb-1548-5319-88e4-c0d0344b3229-attr-9-comment" class="er entityLabel"/></g><rect height="14" width="72.380859375" y="455.5" x="438.2454528808594" class="er relationshipLabelBox"/><text style="text-anchor: middle; dominant-baseline: middle; font-size: 12px;" y="462.5" x="474.4358825683594" id="rel1" class="er relationshipLabel">enum:gender</text><rect height="14" width="96.857421875" y="380.275390625" x="568.5355834960938" class="er relationshipLabelBox"/><text style="text-anchor: middle; dominant-baseline: middle; font-size: 12px;" y="387.275390625" x="616.9642944335938" id="rel2" class="er relationshipLabel">owned_properties</text><rect height="14" width="100.41015625" y="400.52264404296875" x="251.52798461914062" class="er relationshipLabelBox"/><text style="text-anchor: middle; dominant-baseline: middle; font-size: 12px;" y="407.52264404296875" x="301.7330627441406" id="rel3" class="er relationshipLabel">enum:profile_type</text><rect height="14" width="115.05078125" y="356.77398681640625" x="132.9818878173828" class="er relationshipLabelBox"/><text style="text-anchor: middle; dominant-baseline: middle; font-size: 12px;" y="363.77398681640625" x="190.5072784423828" id="rel4" class="er relationshipLabel">enum:account_status</text><rect height="14" width="34.470703125" y="348.003662109375" x="658.0012817382812" class="er relationshipLabelBox"/><text style="text-anchor: middle; dominant-baseline: middle; font-size: 12px;" y="355.003662109375" x="675.2366333007812" id="rel5" class="er relationshipLabel">owner</text><rect height="14" width="118.912109375" y="739" x="657.36865234375" class="er relationshipLabelBox"/><text style="text-anchor: middle; dominant-baseline: middle; font-size: 12px;" y="746" x="716.82470703125" id="rel6" class="er relationshipLabel">enum:property_status</text></svg>